<?xml version="1.0" encoding="UTF-8" standalone="no"?>
<!-- Created with Inkscape (http://www.inkscape.org/) -->

<svg
   xmlns:dc="http://purl.org/dc/elements/1.1/"
   xmlns:cc="http://creativecommons.org/ns#"
   xmlns:rdf="http://www.w3.org/1999/02/22-rdf-syntax-ns#"
   xmlns:svg="http://www.w3.org/2000/svg"
   xmlns="http://www.w3.org/2000/svg"
   xmlns:sodipodi="http://sodipodi.sourceforge.net/DTD/sodipodi-0.dtd"
   xmlns:inkscape="http://www.inkscape.org/namespaces/inkscape"
   version="1.1"
   id="svg2"
   xml:space="preserve"
   width="3243.9199"
   height="1715.3199"
   viewBox="0 0 3243.9199 1715.3199"
   sodipodi:docname="logo.svg"
   inkscape:version="0.92.1 r15371"><metadata
     id="metadata8"><rdf:RDF><cc:Work
         rdf:about=""><dc:format>image/svg+xml</dc:format><dc:type
           rdf:resource="http://purl.org/dc/dcmitype/StillImage" /><dc:title></dc:title></cc:Work></rdf:RDF></metadata><defs
     id="defs6"><clipPath
       clipPathUnits="userSpaceOnUse"
       id="clipPath18"><path
         d="M 0,1286.488 H 2432.943 V 0 H 0 Z"
         id="path16"
         inkscape:connector-curvature="0" /></clipPath></defs><sodipodi:namedview
     pagecolor="#ffffff"
     bordercolor="#666666"
     borderopacity="1"
     objecttolerance="10"
     gridtolerance="10"
     guidetolerance="10"
     inkscape:pageopacity="0"
     inkscape:pageshadow="2"
     inkscape:window-width="1920"
     inkscape:window-height="1025"
     id="namedview4"
     showgrid="false"
     inkscape:zoom="0.093097243"
     inkscape:cx="-332.98516"
     inkscape:cy="857.65997"
     inkscape:window-x="0"
     inkscape:window-y="0"
     inkscape:window-maximized="1"
     inkscape:current-layer="g10" /><g
     id="g10"
     inkscape:groupmode="layer"
     inkscape:label="Skotch Logo"
     transform="matrix(1.3333333,0,0,-1.3333333,0,1715.32)"><g
       id="g12"><g
         id="g14"
         clip-path="url(#clipPath18)"><g
           id="g20"
           transform="translate(866.2983,566.7978)"><path
             d="M 0,0 C -74.481,39.617 140.499,234.85 82.493,83.395 74.151,61.614 29.19,-15.527 0,0 m 218.41,-114.521 c -13.119,-32.362 -24.202,-97.639 -58.589,-106.794 -26.304,-7.003 -103.298,150.684 -96.302,161.203 2.624,4.045 6.121,8.089 9.617,12.134 27.983,35.598 56.2,67.796 60.437,119.109 8.05,97.497 -51.802,117.028 -91.476,97.497 -79.766,-39.27 -100.251,-118.577 -101.721,-111.49 -10.245,49.425 31.87,410.197 44.392,490.329 2.873,18.387 -38.726,11.019 -42.96,0.677 -39.259,-95.893 -162.429,-711.278 -141.767,-891.505 3.605,-31.445 48.672,-42.67 75.633,-23.237 l 70.161,50.573 c 12.925,9.316 19.786,23.94 18.235,39.031 -0.372,3.613 -0.404,7.686 -1.115,12.194 -26.263,166.581 26.984,174.188 43.465,160.242 16.769,-14.19 77.323,-179.052 122.793,-182.288 43.723,-5.664 76.078,83.33 89.197,114.074 4.37,11.327 13.115,42.879 13.991,50.969 1.748,22.653 -8.746,26.698 -13.991,7.282"
             style="fill:#000000;fill-opacity:1;fill-rule:nonzero;stroke:none"
             id="path22"
             inkscape:connector-curvature="0" /></g><g
           id="g24"
           transform="translate(1261.809,843.5966)"><path
             d="m 0,0 c -109.439,-42.316 -98.34,-516.012 -49.234,-533.421 18.079,-6.41 35.657,0.864 45.94,30.763 C 32.12,-399.684 58.286,22.537 0,0"
             style="fill:#a53030;fill-opacity:1;fill-rule:nonzero;stroke:none"
             id="path26"
             inkscape:connector-curvature="0" /></g><g
           id="g28"
           transform="translate(1292.7435,265.6064)"><path
             d="M 0,0 C -27.993,-12.971 -115.477,-27.584 -144.93,40.914 -201.276,171.953 -203.293,809.688 67.612,585.523 172.765,498.513 165.917,76.878 0,0 m 193.714,831.937 c -8.355,4.884 -18.888,-1.889 -24.775,-6.737 0.326,14.924 -1.034,39.159 -10.097,56.344 -10.875,-12.337 -36.276,-19.552 -53.225,-25.858 -14.702,25.26 -20.787,58.466 -20.787,81.966 -32.626,-0.587 -63.403,-17.014 -83.393,-31.044 -16.604,8.325 -32.624,29.327 -42.664,42.464 -11.545,-17.295 -29.217,-29.045 -48.833,-41.321 -16.968,9.235 -27.793,18.634 -33.116,33.203 -25.376,-11.344 -43.426,-36.702 -43.426,-36.702 0,0 -25.213,20.29 -55.471,17.757 11.616,-360.41 -30.964,-1094.546 -31.234,-1105.157 18.259,20.147 39.139,31.417 53.423,30.784 1.353,-20.081 8.908,-40.858 24.71,-64.783 18.106,12.359 35.173,32.421 54.862,34.13 1.531,-9.786 4.053,-29.106 22.098,-42.945 10.074,20.567 22.461,26.866 32.101,31.048 11.133,-11.53 21.206,-37.029 17.184,-63.012 21.798,9.061 36.762,25.038 52.159,39.665 13.249,-5.497 21.435,-10.534 27.597,-30.411 27.522,12.007 27.836,17.044 32.73,27.161 9.902,-7.599 23.031,-30.085 26.559,-43.195 17.028,15.448 17.656,27.727 19.17,46.124 9.157,-4.516 20.838,-9.583 32.171,-23.12 16.685,15.74 19.48,24.279 19.48,24.279 0,0 -3.479,713.05 32.777,1049.36"
             style="fill:#a53030;fill-opacity:1;fill-rule:nonzero;stroke:none"
             id="path30"
             inkscape:connector-curvature="0" /></g><g
           id="g32"
           transform="translate(369.789,324.4325)"><path
             d="m 0,0 c 233.405,106.971 -361.578,333.626 -361.578,541.647 0,259.446 314.789,509.194 517.339,388.76 140.722,-83.673 -17.022,-414.095 -124.667,-430.629 -0.465,-0.044 -0.928,-0.085 -1.39,-0.123 -40.352,-3.312 -60.109,43.031 -29.013,66.429 80.837,60.826 212.924,223.118 120.124,299.408 -92.065,75.686 -276.076,-126.42 -273.213,-281.967 2.534,-137.751 419.579,-272.155 419.579,-462.778 0,-148.745 -196.943,-273.254 -365.757,-245.713 -251.723,41.521 -384.083,313.911 -144.083,370.397 53.854,12.674 92.08,-26.676 14.113,-62.066 C -391.75,109.286 -138.948,-63.681 0,0"
             style="fill:#000000;fill-opacity:1;fill-rule:nonzero;stroke:none"
             id="path34"
             inkscape:connector-curvature="0" /></g><g
           id="g36"
           transform="translate(2413.4819,471.7685)"><path
             d="m 0,0 c -20.025,-56.389 -28.816,-103.483 -55.313,-146.77 -21.581,-35.255 -36.239,-19.308 -32.426,27.812 1.909,22.401 11.449,160.668 1.909,200.065 -6.673,28.578 -44.821,73.38 -88.691,49.438 -15.255,-7.728 -61.035,-33.217 -129.701,-141.36 -31.468,-65.658 33.98,378.065 45.187,435.181 1.289,6.572 -5.563,12.224 -13.733,11.53 -65.103,-5.539 -91.94,-28.553 -133.491,-169.402 -9.439,-31.999 -111.215,-435.035 -11.449,-543.808 19.884,-21.68 97.257,54.043 97.28,78.79 0.056,58.977 6.673,101.191 29.559,148.311 1.91,12.362 85.266,144.734 128.318,138.495 35.846,-5.194 -26.852,-111.676 -26.852,-177.333 0,-49.436 8.505,-101.346 85.457,-107.156 48.495,-3.661 68.734,34.223 78.199,56.389 14.313,33.521 31.254,98.37 43.87,139.043 C 21.737,10.876 6.673,23.172 0,0"
             style="fill:#000000;fill-opacity:1;fill-rule:nonzero;stroke:none"
             id="path38"
             inkscape:connector-curvature="0" /></g><g
           id="g40"
           transform="translate(1972.5463,362.2206)"><path
             d="m 0,0 c -15.086,-47.717 -72.55,-126.937 -136.455,-119.329 -19.968,2.377 -101.092,20.245 -73.848,185.411 20.284,122.975 49.713,168.725 82.789,162.622 79.467,-14.663 -4.371,-141.297 28.775,-139.168 69.093,4.438 67.826,150.072 5.162,179.714 -55.781,26.387 -119.159,16.22 -156.137,-42.485 -68.212,-106.602 -89.578,-231.737 -50.955,-305.121 14.797,-26.266 52.245,-60.235 83.821,-74.927 C -90.481,-212.08 -28.231,-117.773 1.394,-35.78 0.364,-20.659 -0.088,-16.072 0,0"
             style="fill:#000000;fill-opacity:1;fill-rule:nonzero;stroke:none"
             id="path42"
             inkscape:connector-curvature="0" /></g><g
           id="g44"
           transform="translate(1808.9193,936.1035)"><path
             d="m 0,0 c -31.466,-4.537 -89.755,-13.733 -114.778,-17.062 2.933,12.52 32.356,103.885 44.293,141.992 3.024,9.655 -5.18,19.114 -15.166,17.486 l -71.07,-11.588 c -8.607,-1.404 -15.792,-7.35 -18.72,-15.565 C -197.67,52.912 -220.514,-34.98 -220.514,-34.98 l -81.003,-17.617 c -2.463,-0.685 -4.125,-3.195 -3.898,-5.977 0.456,-5.603 1.247,-14.974 1.965,-21.725 0.321,-3.026 2.763,-5.088 5.501,-4.623 12.979,2.204 62.318,14.899 72.402,15.091 -19.919,-99.717 -80.013,-298.347 -71.599,-498.735 4.486,-106.869 34.842,-172.781 113.178,-176.746 64.466,-3.264 67.983,35.394 73.349,96.801 0.347,3.979 1.064,8.035 -0.951,11.371 l -8.525,14.111 c 0,0 -14.095,-59.647 -27.631,-71.056 -5.68,-4.79 -14.566,-2.86 -18.85,3.152 -62.776,88.091 -2.586,482.057 44.346,640.573 22.269,4.105 86.75,15.975 124.997,23.644 4.381,0.879 7.485,5.244 7.201,10.134 L 9.517,-8.803 C 9.201,-3.387 4.888,0.705 0,0"
             style="fill:#000000;fill-opacity:1;fill-rule:nonzero;stroke:none"
             id="path46"
             inkscape:connector-curvature="0" /></g><text
           transform="matrix(1,0,0,-1,1597.8022,27.9512)"
           style="font-variant:normal;font-weight:900;font-stretch:normal;font-size:100.91280365px;font-family:'Qanelas Black';-inkscape-font-specification:Qanelas-Black;writing-mode:lr-tb;fill:#000000;fill-opacity:1;fill-rule:nonzero;stroke:none"
           id="text50"><tspan
             x="0 67.308838 135.6268 222.91638 303.44479 373.57919 454.91492 512.93976 549.672 636.96161"
             y="0"
             sodipodi:role="line"
             id="tspan48">PRODUCTION</tspan></text>
</g></g></g></svg>